<svg xmlns="http://www.w3.org/2000/svg" viewBox="0 0 533.333 533.333">
  <rect x="0" y="0" width="533.333" height="533.333" fill="#fff" />
  <path d="M166.667 33.333H33.333v133.333h133.333V33.333zM200 0v200H0V0h200zM66.667 66.667h66.667v66.667H66.667V66.667zM500 33.333H366.667v133.333H500V33.333zM533.333 0v200h-200V0h200zM400 66.667h66.667v66.667H400V66.667zm-233.333 300H33.333V500h133.333V366.667zM200 333.333v200H0v-200h200zM66.667 400h66.667v66.667H66.667V400zM233.333 0h33.333v33.333h-33.333V0zm33.334 33.333H300v33.333h-33.333V33.333zm-33.334 33.334h33.333V100h-33.333V66.667zM266.667 100H300v33.333h-33.333V100zm-33.334 33.333h33.333v33.333h-33.333v-33.333zm33.334 33.334H300V200h-33.333v-33.333zM233.333 200h33.333v33.333h-33.333V200zm0 66.667h33.333V300h-33.333v-33.333zM266.667 300H300v33.333h-33.333V300zm-33.334 33.333h33.333v33.334h-33.333v-33.334zm33.334 33.334H300V400h-33.333v-33.333zM233.333 400h33.333v33.333h-33.333V400zm33.334 33.333H300v33.334h-33.333v-33.334zm-33.334 33.334h33.333V500h-33.333v-33.333zM266.667 500H300v33.333h-33.333V500zM500 266.667h33.334V300H500v-33.333zm-466.667 0h33.333V300H33.333v-33.333zm33.334-33.334H100v33.333H66.667v-33.333zm-66.667 0h33.333v33.333H0v-33.333zm133.333 0h33.333v33.333h-33.333v-33.333zm33.334 33.334H200V300h-33.333v-33.333zM200 233.333h33.333v33.333H200v-33.333zm100 33.334h33.334V300H300v-33.333zm33.333-33.334h33.333v33.333h-33.333v-33.333zm33.334 33.334H400V300h-33.333v-33.333zM400 233.333h33.334v33.333H400v-33.333zm33.333 33.334h33.333V300h-33.333v-33.333zm33.334-33.334H500v33.333h-33.333v-33.333zm33.333 100h33.334v33.334H500v-33.334zm-200 0h33.334v33.334H300v-33.334zM333.333 300h33.333v33.333h-33.333V300zm33.334 33.333H400v33.334h-33.333v-33.334zm66.666 0h33.333v33.334h-33.333v-33.334zM466.667 300H500v33.333h-33.333V300zM500 400h33.334v33.333H500V400zm-200 0h33.334v33.333H300V400zm33.333-33.333h33.333V400h-33.333v-33.333zm66.667 0h33.334V400H400v-33.333zM433.333 400h33.333v33.333h-33.333V400zm33.334-33.333H500V400h-33.333v-33.333zm33.333 100h33.334V500H500v-33.333zm-166.667-33.334h33.333v33.334h-33.333v-33.334zm33.334 33.334H400V500h-33.333v-33.333zM400 433.333h33.334v33.334H400v-33.334zm33.333 33.334h33.333V500h-33.333v-33.333zm-100 33.333h33.333v33.333h-33.333V500zM400 500h33.334v33.333H400V500zm66.667 0H500v33.333h-33.333V500z"/>
</svg>
